<svg xmlns="http://www.w3.org/2000/svg" width="511" height="511.067" viewBox="0 0 511 511.067">
  <g id="check-mark" transform="translate(-0.5 511.567)">
    <path id="Path_1" data-name="Path 1" d="M232.3-511A255.9,255.9,0,0,0,75.2-437c-39.7,39.7-64,88.2-72.9,146-2.4,16.1-2.4,53.9,0,70,8.9,57.7,33,105.9,72.7,145.8,39.7,39.7,88.2,64,146,72.9,16.1,2.4,53.9,2.4,70,0,57.7-8.9,105.9-33,145.8-72.7,39.7-39.7,64-88.2,72.9-146,2.4-16.1,2.4-53.9,0-70-8.9-57.7-33-105.9-72.7-145.8-39.4-39.5-88.5-64.1-145-72.7C279.5-511.4,245.2-512.2,232.3-511Zm56.2,41.5a213.554,213.554,0,0,1,120,61q50.1,50.1,61.2,121c1.2,7.8,1.7,17,1.7,31.5s-.5,23.7-1.7,31.5q-11.1,70.8-61.2,121-50.1,50.1-121,61.2c-15.1,2.4-47.9,2.4-63,0q-70.8-11.1-121-61.2-50.1-50.1-61.2-121c-2.4-15.1-2.4-47.9,0-63q11.1-70.8,61.2-121c36.8-36.8,80.5-57.2,135-62.9C246.6-472.2,278.8-471,288.5-469.5Z" fill="#198754"/>
    <path id="Path_2" data-name="Path 2" d="M347-341.4c-2.2.9-25.7,23.7-64.7,62.7L221-217.6l-25.7-25.6c-14.2-14-27.2-26.2-28.8-27.1-10.3-5.2-21.9-1.5-27,8.7-3,6-3.2,11.5-.5,17,1.2,2.7,14.2,16.3,36.7,38.7,27.4,27.3,35.6,34.9,38.7,35.9,5.1,1.6,12.8.7,16.9-2.1,4.8-3.3,136.3-134.7,140-139.9,2.8-4,3.2-5.3,3.2-11.2,0-5.8-.4-7.2-3-10.9C365.9-342,355.6-345.1,347-341.4Z" fill="#198754"/>
  </g>
</svg>
