<svg xmlns="http://www.w3.org/2000/svg" width="55.269" height="55.483" viewBox="0 0 55.269 55.483">
  <g id="close" transform="translate(-4.231 59.894)">
    <path id="Path_1" data-name="Path 1" d="M24.4-58.9C11-55.1,1.8-39.6,4.8-26.3,10.6-1,43.7,3.6,56.4-19c2.7-4.8,3.1-6.5,3.1-13s-.4-8.2-3.1-13C50-56.4,36.3-62.4,24.4-58.9Zm18.3,5.2c3.9,2.1,8.9,7,10.9,11,2.5,4.8,3,13.9,1,19.1-1.9,4.9-7.1,10.7-11.9,13.3-4.3,2.4-17,2.4-21.2.1C13.6-14.5,8-23.6,8-32c0-9.1,6.9-19.2,15.5-22.5C28.4-56.3,38.3-55.9,42.7-53.7Z" fill="#dc3545"/>
    <path id="Path_2" data-name="Path 2" d="M22-40.8c0,.7,1.7,2.9,3.7,5L29.4-32l-3.7,3.8c-6.4,6.5-4,8.9,2.5,2.5L32-29.4l3.8,3.7c6.5,6.4,8.9,4,2.5-2.5L34.6-32l3.7-3.8c2-2.1,3.7-4.3,3.7-5,0-2.2-2.4-1.2-6.2,2.5L32-34.6l-3.8-3.7C24.4-42,22-43,22-40.8Z" fill="#dc3545"/>
  </g>
</svg>
