<svg width="50" height="50" viewBox="0 0 50 50" fill="none" xmlns="http://www.w3.org/2000/svg">
<rect width="50" height="50" fill="#F3F3F3"/>
<g clip-path="url(#clip0_3904_8483)">
<path d="M27.793 38H18.0938C15.8536 38 14.0312 36.1776 14.0312 33.9375V20.1758C14.0312 17.9357 15.8536 16.1133 18.0938 16.1133H27.793C30.0331 16.1133 31.8555 17.9357 31.8555 20.1758V33.9375C31.8555 36.1776 30.0331 38 27.793 38ZM18.0938 18.1445C16.9738 18.1445 16.0625 19.0558 16.0625 20.1758V33.9375C16.0625 35.0575 16.9738 35.9688 18.0938 35.9688H27.793C28.9129 35.9688 29.8242 35.0575 29.8242 33.9375V20.1758C29.8242 19.0558 28.9129 18.1445 27.793 18.1445H18.0938ZM35.918 31.3984V16.0625C35.918 13.8224 34.0956 12 31.8555 12H20.582C20.0211 12 19.5664 12.4547 19.5664 13.0156C19.5664 13.5766 20.0211 14.0312 20.582 14.0312H31.8555C32.9754 14.0312 33.8867 14.9425 33.8867 16.0625V31.3984C33.8867 31.9594 34.3414 32.4141 34.9023 32.4141C35.4633 32.4141 35.918 31.9594 35.918 31.3984Z" fill="#5B5A5F"/>
</g>
<defs>
<clipPath id="clip0_3904_8483">
<rect width="26" height="26" fill="white" transform="translate(12 12)"/>
</clipPath>
</defs>
</svg>
