<svg width="20" height="20" viewBox="0 0 20 20" fill="none" xmlns="http://www.w3.org/2000/svg">
<g id="facebook-app-symbol 1" clip-path="url(#clip0_3975_651)">
<path id="Vector" d="M11.0254 20H7.81635C7.28033 20 6.8443 19.5648 6.8443 19.0298V11.8057H4.97205C4.43603 11.8057 4 11.3704 4 10.8356V7.74002C4 7.20505 4.43603 6.76987 4.97205 6.76987H6.8443V5.21973C6.8443 3.68271 7.32788 2.37503 8.2426 1.43829C9.16145 0.497284 10.4455 0 11.9561 0L14.4035 0.00396727C14.9386 0.00488281 15.3738 0.440064 15.3738 0.974121V3.84827C15.3738 4.38324 14.938 4.81842 14.4021 4.81842L12.7543 4.81903C12.2517 4.81903 12.1238 4.91959 12.0964 4.95041C12.0513 5.00153 11.9976 5.14603 11.9976 5.54504V6.76971H14.2783C14.4499 6.76971 14.6163 6.81198 14.7592 6.89163C15.0676 7.0636 15.2593 7.38876 15.2593 7.74017L15.2581 10.8357C15.2581 11.3704 14.8221 11.8056 14.2861 11.8056H11.9976V19.0298C11.9976 19.5648 11.5615 20 11.0254 20ZM8.01908 18.8275H10.8227V11.2808C10.8227 10.9236 11.114 10.6331 11.4717 10.6331H14.0833L14.0844 7.94235H11.4716C11.1138 7.94235 10.8227 7.65183 10.8227 7.29462V5.54504C10.8227 5.08698 10.8693 4.56604 11.2158 4.1745C11.6344 3.70117 12.2941 3.64655 12.754 3.64655L14.1991 3.64594V1.17615L11.9551 1.17249C9.52761 1.17249 8.01908 2.72339 8.01908 5.21973V7.29462C8.01908 7.65167 7.72798 7.94235 7.37023 7.94235H5.17478V10.6331H7.37023C7.72798 10.6331 8.01908 10.9236 8.01908 11.2808V18.8275Z" fill="black"/>
</g>
<defs>
<clipPath id="clip0_3975_651">
<rect width="20" height="20" fill="white"/>
</clipPath>
</defs>
</svg>
