<svg width="207" height="207" viewBox="0 0 207 207" fill="none" xmlns="http://www.w3.org/2000/svg">
<path d="M183.04 158.832C183.04 119.059 203.642 91.747 203.642 72.5822C203.642 53.4175 192.625 13.1675 104.46 13.1675C16.2953 13.1675 3.35205 67.3152 3.35205 88.3947C3.35205 187.105 183.04 229.27 183.04 158.832Z" fill="#F3F3F3"/>
<path d="M133.688 38.8125H95.3925H50.3125C43.9875 38.8125 38.8125 43.9875 38.8125 50.3125V84.3525V156.688C38.8125 163.012 43.9875 168.188 50.3125 168.188H88.6075H133.688C140.012 168.188 145.188 163.012 145.188 156.688V122.647V50.3125C145.188 43.9875 140.012 38.8125 133.688 38.8125Z" fill="#F3F3F1"/>
<path d="M135.125 104.938C153.385 104.938 168.188 90.1349 168.188 71.875C168.188 53.6151 153.385 38.8125 135.125 38.8125C116.865 38.8125 102.062 53.6151 102.062 71.875C102.062 90.1349 116.865 104.938 135.125 104.938Z" fill="#CFA935"/>
<g clip-path="url(#clip0_425_152)">
<path d="M152.887 64.6668L132.84 84.712C131.356 86.1967 128.948 86.1967 127.462 84.712L117.114 74.363C115.629 72.8783 115.629 70.4699 117.114 68.9849C118.599 67.4996 121.007 67.4996 122.492 68.9843L130.152 76.6448L147.508 59.2884C148.994 57.8031 151.402 57.8042 152.886 59.2884C154.371 60.7734 154.371 63.1809 152.887 64.6668Z" fill="white"/>
</g>
<path d="M51.75 156.688V84.3525V50.3125C51.75 43.9875 56.925 38.8125 63.25 38.8125H50.3125C43.9875 38.8125 38.8125 43.9875 38.8125 50.3125V84.3525V156.688C38.8125 163.012 43.9875 168.188 50.3125 168.188H63.25C56.925 168.188 51.75 163.012 51.75 156.688Z" fill="#D5DBE1"/>
<path d="M115 71.875C115 55.8325 126.431 42.4638 141.594 39.4565C139.501 39.0367 137.339 38.8125 135.125 38.8125C116.863 38.8125 102.062 53.613 102.062 71.875C102.062 90.137 116.863 104.938 135.125 104.938C137.339 104.938 139.501 104.713 141.594 104.294C126.431 101.286 115 87.9175 115 71.875Z" fill="#AC8D2F"/>
<path d="M133.688 172.5H50.3125C41.5898 172.5 34.5 165.41 34.5 156.688V50.3125C34.5 41.5898 41.5898 34.5 50.3125 34.5H91.08C93.4617 34.5 95.3925 36.4308 95.3925 38.8125C95.3925 41.1942 93.4617 43.125 91.08 43.125H50.3125C46.3507 43.125 43.125 46.3507 43.125 50.3125V156.688C43.125 160.649 46.3507 163.875 50.3125 163.875H133.688C137.649 163.875 140.875 160.649 140.875 156.688V126.96C140.875 124.578 142.806 122.648 145.188 122.648C147.569 122.648 149.5 124.578 149.5 126.96V156.688C149.5 165.41 142.41 172.5 133.688 172.5Z" fill="#1C1F30"/>
<path d="M135.125 109.25C114.517 109.25 97.75 92.483 97.75 71.875C97.75 51.267 114.517 34.5 135.125 34.5C155.733 34.5 172.5 51.267 172.5 71.875C172.5 92.483 155.733 109.25 135.125 109.25ZM135.125 43.125C119.272 43.125 106.375 56.0223 106.375 71.875C106.375 87.7277 119.272 100.625 135.125 100.625C150.978 100.625 163.875 87.7277 163.875 71.875C163.875 56.0223 150.978 43.125 135.125 43.125Z" fill="#1C1F30"/>
<path d="M60.375 151.25C60.375 153.459 58.5841 155.25 56.375 155.25H55.75C53.5409 155.25 51.75 153.459 51.75 151.25V125.063C51.75 122.682 53.682 120.75 56.0625 120.75H63.25C69.5923 120.75 74.75 125.908 74.75 132.25C74.75 138.592 69.5923 143.75 63.25 143.75C61.6622 143.75 60.375 145.037 60.375 146.625V151.25ZM60.375 132.25C60.375 133.838 61.6622 135.125 63.25 135.125C64.837 135.125 66.125 133.837 66.125 132.25C66.125 130.663 64.837 129.375 63.25 129.375C61.6622 129.375 60.375 130.662 60.375 132.25Z" fill="#1C1F30"/>
<path d="M93.4375 155.25H84.8125C82.432 155.25 80.5 153.318 80.5 150.938V125.063C80.5 122.682 82.432 120.75 84.8125 120.75H93.4375C98.9863 120.75 103.5 125.264 103.5 130.813V145.188C103.5 150.736 98.9863 155.25 93.4375 155.25ZM89.125 146.625H93.4375C94.231 146.625 94.875 145.981 94.875 145.188V130.813C94.875 130.019 94.231 129.375 93.4375 129.375H89.125V146.625Z" fill="#1C1F30"/>
<path d="M117.875 150.938C117.875 153.319 115.944 155.25 113.563 155.25C111.181 155.25 109.25 153.319 109.25 150.938V130.813C109.25 125.264 113.764 120.75 119.313 120.75H127.938C130.319 120.75 132.25 122.681 132.25 125.063C132.25 127.444 130.319 129.375 127.938 129.375H119.313C118.519 129.375 117.875 130.019 117.875 130.813V150.938Z" fill="#1C1F30"/>
<path d="M109.25 139.125C109.25 136.916 111.041 135.125 113.25 135.125H128.25C130.459 135.125 132.25 136.916 132.25 139.125V139.75C132.25 141.959 130.459 143.75 128.25 143.75H113.25C111.041 143.75 109.25 141.959 109.25 139.75V139.125Z" fill="#1C1F30"/>
<path d="M182.252 46.1968L186.318 42.1309L194.45 50.2626L190.384 54.3285L182.252 46.1968Z" fill="#A4AFC1"/>
<path d="M158.846 22.77L162.912 18.7042L171.044 26.8359L166.978 30.9017L158.846 22.77Z" fill="#A4AFC1"/>
<path d="M182.238 27.8828L190.37 19.7511L194.435 23.8169L186.304 31.9487L182.238 27.8828Z" fill="#A4AFC1"/>
<defs>
<clipPath id="clip0_425_152">
<rect width="38" height="38" fill="white" transform="translate(116 53)"/>
</clipPath>
</defs>
</svg>
