<svg width="20" height="20" viewBox="0 0 20 20" fill="none" xmlns="http://www.w3.org/2000/svg">
<g id="linkedin 1" clip-path="url(#clip0_3975_5024)">
<path id="Vector" d="M5.21739 19.296C5.21739 19.5722 4.99353 19.796 4.71739 19.796H0.5C0.223857 19.796 0 19.5722 0 19.296V6.81787C0 6.54173 0.223858 6.31787 0.5 6.31787H4.71739C4.99353 6.31787 5.21739 6.54173 5.21739 6.81787V19.296ZM0.869512 18.4265C0.869512 18.7027 1.09337 18.9265 1.36951 18.9265H3.84788C4.12402 18.9265 4.34788 18.7027 4.34788 18.4265V7.68738C4.34788 7.41124 4.12402 7.18738 3.84788 7.18738H1.36951C1.09337 7.18738 0.869512 7.41124 0.869512 7.68738V18.4265Z" fill="black"/>
<path id="Vector_2" d="M20 19.296C20 19.5722 19.7762 19.796 19.5 19.796H15.2826C15.0065 19.796 14.7826 19.5722 14.7826 19.296V12.4048C14.7826 11.6845 14.1986 11.1004 13.4783 11.1004C12.7578 11.1004 12.1739 11.6845 12.1739 12.4048V19.296C12.1739 19.5722 11.9501 19.796 11.6739 19.796H7.45654C7.1804 19.796 6.95654 19.5722 6.95654 19.296V6.81787C6.95654 6.54173 7.1804 6.31787 7.45654 6.31787H11.8781C12.0415 6.31787 12.1739 6.45034 12.1739 6.61375C12.1739 6.8552 12.4514 6.99967 12.6632 6.88382C13.3403 6.51347 14.1025 6.31736 14.8804 6.31787C17.701 6.31787 20 8.60589 20 11.4211V19.296ZM15.6521 18.4265C15.6521 18.7027 15.876 18.9265 16.1521 18.9265H18.6304C18.9065 18.9265 19.1304 18.7027 19.1304 18.4265V11.4211C19.1245 9.07894 17.2226 7.18436 14.8804 7.18738C13.8098 7.18738 12.8043 7.63846 12.0544 8.45368C11.7886 8.74441 11.3043 8.5564 11.3043 8.16252V7.68738C11.3043 7.41124 11.0804 7.18738 10.8043 7.18738H8.32605C8.04991 7.18738 7.82606 7.41124 7.82606 7.68738V18.4265C7.82606 18.7027 8.04991 18.9265 8.32606 18.9265H10.8043C11.0804 18.9265 11.3043 18.7027 11.3043 18.4265V12.4048C11.3043 11.2041 12.2776 10.2309 13.4783 10.2309C14.6788 10.2309 15.6521 11.2041 15.6521 12.4048V18.4265Z" fill="black"/>
<path id="Vector_3" d="M2.6087 5.44835C1.16789 5.44835 0 4.28045 0 2.83965C0 1.39901 1.16789 0.230957 2.6087 0.230957C4.0495 0.230957 5.21739 1.39901 5.21739 2.83965C5.21437 4.27918 4.04822 5.44548 2.6087 5.44835ZM2.6087 1.10063C1.64827 1.10063 0.869512 1.87922 0.869512 2.83965C0.869512 3.80024 1.64827 4.57884 2.6087 4.57884C3.56912 4.57884 4.34788 3.80024 4.34788 2.83965C4.34788 1.87922 3.56912 1.10063 2.6087 1.10063Z" fill="black"/>
</g>
<defs>
<clipPath id="clip0_3975_5024">
<rect width="20" height="20" fill="white"/>
</clipPath>
</defs>
</svg>
