<svg width="20" height="20" viewBox="0 0 20 20" fill="none" xmlns="http://www.w3.org/2000/svg">
<g id="locked-padlock- 1">
<g id="Group">
<path id="Vector" d="M12.8933 6.63909C13.5344 6.91026 14.1273 7.26646 14.6651 7.70079V4.63059C14.6651 2.07744 12.5876 0 10.0345 0H9.96325C7.41241 0 5.33496 2.07744 5.33496 4.63059V7.70079C5.87271 7.26648 6.46561 6.91028 7.10676 6.63909C7.27912 6.56555 7.45607 6.49891 7.63302 6.43916V4.63059C7.63302 3.34367 8.67864 2.29806 9.96555 2.29806H10.0368C11.3237 2.29806 12.3693 3.34367 12.3693 4.63059V6.44146C12.5439 6.49891 12.7209 6.56555 12.8933 6.63909Z" fill="#1C1F30"/>
<path id="Vector_2" d="M3.4873 13.4873C3.4873 17.0837 6.40354 20 10 20C13.5965 20 16.5127 17.086 16.5127 13.4873C16.5127 11.7201 15.8072 10.116 14.6651 8.9417C14.0216 8.28218 13.2403 7.7582 12.367 7.41582C11.6339 7.12856 10.8342 6.97229 10 6.97229C9.16583 6.97229 8.36611 7.12856 7.63302 7.41582C6.75976 7.75593 5.97842 8.27989 5.33497 8.9417C4.19051 10.116 3.4873 11.7201 3.4873 13.4873ZM8.3224 12.1728C8.34538 11.2834 9.06926 10.5596 9.95861 10.5389C10.9031 10.5159 11.6776 11.2766 11.6776 12.2164C11.6776 12.3153 11.6684 12.4118 11.6523 12.5037C11.5695 12.9794 11.2869 13.3884 10.8916 13.6367C10.7284 13.7401 10.6457 13.9331 10.6871 14.1193L11.1858 16.484C11.2157 16.6264 11.1077 16.762 10.9606 16.762H9.03941C8.89234 16.762 8.78431 16.6287 8.8142 16.484L9.31286 14.1193C9.35193 13.9308 9.27149 13.7378 9.10836 13.6343C8.71309 13.3861 8.43043 12.9794 8.34767 12.5014C8.32929 12.3957 8.32012 12.2854 8.3224 12.1728Z" fill="#1C1F30"/>
</g>
</g>
</svg>
