<svg width="50" height="50" viewBox="0 0 50 50" fill="none" xmlns="http://www.w3.org/2000/svg">
<rect width="50" height="50" rx="10" fill="#CFA935"/>
<g clip-path="url(#clip0_424_71)">
<path fill-rule="evenodd" clip-rule="evenodd" d="M24.8133 33.859V35.1548C24.8133 36.1939 24.2955 37.0909 23.3956 37.6104C22.9626 37.8604 22.4794 37.9998 21.9784 38.0001C21.4769 38.0003 20.9938 37.8606 20.5605 37.6104L14.7991 34.284C13.8991 33.7644 13.3813 32.8676 13.3813 31.8284V14.8355C13.3813 13.2719 14.6533 12 16.2169 12H28.9056C30.4693 12 31.7414 13.2718 31.7414 14.8355V18.4176C31.7414 18.9314 31.3241 19.3487 30.8103 19.3487C30.2963 19.3487 29.8794 18.9315 29.8794 18.4176V14.8355C29.8794 14.2986 29.4425 13.8617 28.9056 13.8617H17.787L23.3956 17.1004C24.2952 17.6199 24.8133 18.5167 24.8133 19.5555V31.9971H28.9056C29.4425 31.9971 29.8794 31.5605 29.8794 31.0235V27.8834C29.8794 27.3692 30.296 26.9523 30.8103 26.9523C31.3243 26.9523 31.7414 27.3693 31.7414 27.8834V31.0235C31.7414 32.5872 30.4693 33.859 28.9056 33.859H24.8133ZM33.4402 23.8604L32.4149 24.8857C32.0513 25.2492 32.0514 25.8386 32.4149 26.2022C32.5899 26.3773 32.8257 26.4746 33.0731 26.4746C33.3209 26.4746 33.5564 26.3775 33.7317 26.2022L36.3458 23.5876C36.7093 23.2241 36.7093 22.635 36.3458 22.2715L33.7317 19.6573C33.3681 19.2937 32.7787 19.2939 32.4149 19.6573C32.0515 20.0204 32.0516 20.6101 32.4149 20.9734L33.4402 21.9984H26.5715C26.0572 21.9984 25.6407 22.4152 25.6407 22.9295C25.6407 23.4439 26.0572 23.8604 26.5715 23.8604H33.4402V23.8604Z" fill="white"/>
</g>
<defs>
<clipPath id="clip0_424_71">
<rect width="26" height="26" fill="white" transform="translate(12 12)"/>
</clipPath>
</defs>
</svg>
