<svg width="16" height="20" viewBox="0 0 16 20" fill="none" xmlns="http://www.w3.org/2000/svg">
<g id="Group">
<path id="Vector" d="M8.00023 9.7959C10.7191 9.7959 12.9233 7.60303 12.9233 4.89796C12.9233 2.19289 10.7191 0 8.00023 0C5.28129 0 3.07715 2.19289 3.07715 4.89796C3.07715 7.60303 5.28129 9.7959 8.00023 9.7959Z" fill="#1C1F30"/>
<path id="Vector_2" d="M10.5641 11.8368H5.4359C2.46154 11.8368 0 14.2859 0 17.245C0 17.9593 0.30769 18.5716 0.92308 18.8777C1.84615 19.3879 3.89744 20 8 20C12.1026 20 14.1538 19.3879 15.0769 18.8777C15.5897 18.5716 16 17.9593 16 17.245C16 14.1838 13.5385 11.8368 10.5641 11.8368Z" fill="#1C1F30"/>
</g>
</svg>
