<svg width="1002" height="806" viewBox="0 0 1002 806" fill="none" xmlns="http://www.w3.org/2000/svg">
<path d="M303.101 485.365H698.418V365.352C698.418 256.363 609.746 167.697 500.763 167.697C391.779 167.697 303.108 256.369 303.108 365.352V485.365H303.101ZM627.411 414.364H374.096V365.352C374.096 295.516 430.913 238.698 500.75 238.698C570.587 238.698 627.404 295.516 627.404 365.352V414.364H627.411Z" fill="#4D5060"/>
<path d="M673.224 365.346H328.296C280.136 365.346 241.033 404.449 241.033 452.609V708.903C241.033 757.064 280.136 796.166 328.296 796.166H673.224C721.384 796.166 760.487 757.064 760.487 708.903V452.609C760.487 404.449 721.384 365.346 673.224 365.346Z" fill="#1C1F30"/>
<path d="M440.216 536.555C440.216 503.117 467.319 476.014 500.757 476.014C534.195 476.014 561.299 503.117 561.299 536.555C561.299 558.926 549.162 578.462 531.116 588.941V685.493H470.405V588.941C452.359 578.462 440.222 558.926 440.222 536.555H440.216Z" fill="white"/>
<path d="M643.749 526.365C642.829 525.326 641.42 524.844 640.05 524.7C638.673 524.556 637.277 524.712 635.893 524.731C632.501 524.787 629.096 524.042 626.035 522.565C624.438 521.802 622.924 520.831 621.221 520.337L611.519 521.232C610.286 522.753 609.553 524.687 609.266 526.646C609.003 528.418 609.084 530.214 609.309 531.992L609.441 534.02L645.095 531.673L644.963 529.645H644.97C644.863 528.424 644.544 527.266 643.749 526.365Z" fill="white"/>
<path d="M609.585 510.522L611.513 521.232L621.215 520.337V510.309L609.585 510.522Z" fill="#F5BDC8"/>
<path d="M689.117 525.351C688.172 524.337 686.745 523.898 685.368 523.792C683.985 523.686 682.601 523.886 681.218 523.949C677.825 524.105 674.401 523.46 671.297 522.077C669.676 521.363 668.136 520.437 666.421 519.993L656.75 521.176C655.56 522.734 654.884 524.687 654.659 526.653C654.453 528.43 654.584 530.227 654.859 531.998L655.053 534.02L690.626 530.609L690.432 528.587H690.438C690.294 527.372 689.944 526.221 689.117 525.344V525.351Z" fill="white"/>
<path d="M654.497 510.528L656.75 521.176L666.421 519.993L666.12 509.971L654.497 510.528Z" fill="#F5BDC8"/>
<path d="M541.156 313.098H541.12L541.084 313.093C527.011 311.048 513.944 320.798 511.9 334.872L511.405 334.8L511.9 334.872C510.383 345.305 515.353 355.185 523.761 360.433H523.765L523.885 360.507C526.79 362.294 530.093 363.534 533.679 364.056L533.679 364.057C533.674 364.056 533.729 364.061 533.883 364.072C534.023 364.083 534.223 364.097 534.481 364.115C534.997 364.15 535.743 364.199 536.695 364.258C538.599 364.377 541.326 364.538 544.689 364.717C551.415 365.074 560.683 365.5 570.987 365.799C591.605 366.396 616.339 366.479 633.174 364.474L633.66 364.416L633.728 364.901L654.121 510.051L666.524 509.457L669.745 341.705C669.311 332.404 662.301 324.651 653.048 323.316L541.167 313.098H541.167H541.167H541.167H541.166H541.166H541.166H541.166H541.166H541.166H541.165H541.165H541.165H541.165H541.165H541.165H541.164H541.164H541.164H541.164H541.164H541.164H541.163H541.163H541.163H541.163H541.163H541.163H541.163H541.162H541.162H541.162H541.162H541.162H541.162H541.161H541.161H541.161H541.161H541.161H541.161H541.16H541.16H541.16H541.16H541.16H541.16H541.159H541.159H541.159H541.159H541.159H541.159H541.159H541.158H541.158H541.158H541.158H541.158H541.158H541.157H541.157H541.157H541.157H541.157H541.157H541.157H541.156H541.156H541.156Z" fill="white" stroke="black"/>
<path d="M671.009 327.458C672.236 325.01 671.566 322.119 669.475 320.86L664.856 318.037L660.286 315.145C657.225 313.243 654.258 311.221 651.26 309.262C645.345 305.23 639.499 301.149 633.978 296.793C628.457 292.449 623.18 287.911 618.385 283.11C613.584 278.309 609.29 273.245 605.61 267.868C601.923 262.491 598.806 256.839 596.133 250.748C593.441 244.683 591.094 238.248 588.822 231.569C586.556 224.89 584.353 217.986 582.062 211.007C579.765 204.027 577.417 196.967 574.888 189.919C573.186 185.487 569.637 182.288 565.318 180.817C561.011 179.334 556.016 179.547 551.365 181.744C546.715 183.941 543.341 187.653 541.632 191.759C539.936 195.865 539.842 200.403 541.87 204.416C545.212 210.662 548.442 217.028 551.678 223.488C554.914 229.948 558.138 236.527 561.581 243.218C565.023 249.897 568.698 256.713 572.96 263.411C577.186 270.115 582.137 276.631 587.633 282.515C593.128 288.418 599.156 293.657 605.41 298.289C611.669 302.927 618.141 306.989 624.689 310.733C631.236 314.482 637.909 317.806 644.581 321.036C647.943 322.588 651.273 324.197 654.653 325.661L659.704 327.896L664.781 330.049C667.059 331.032 669.801 329.893 671.028 327.445L671.009 327.458Z" fill="#EA8096"/>
<path d="M557.005 249.133L540.06 211.645C534.934 200.309 539.04 186.995 550.376 181.869C561.712 176.742 575.996 181.75 581.116 193.086L598.061 230.574L556.998 249.133H557.005Z" fill="#FF654F"/>
<path d="M536.674 168.511C567.69 172.749 585.466 203.026 578.875 233.628C574.074 255.924 564.322 323.746 564.322 323.746C562.05 333.104 488.708 384.544 478.01 358.599C464.64 326.174 481.872 244.739 486.717 207.32C489.891 182.82 512.199 165.162 536.674 168.511Z" fill="#FF654F"/>
<path d="M498.567 182.182C492.289 188.873 487.988 197.555 486.724 207.32C484.859 221.698 481.172 242.586 478.092 264.688L477.053 264.362C478.58 253.446 480.258 242.786 481.804 232.971C483.375 222.987 484.733 214.362 485.666 207.176C486.968 197.142 491.418 188.191 497.922 181.305L498.573 182.175L498.567 182.182ZM576.497 252.194C573.555 269.345 570.156 291.591 567.903 306.726L566.92 306.088C569.18 290.934 572.541 268.9 575.464 251.875L576.497 252.194ZM523.279 356.157C515.949 360.019 507.249 363.938 499.28 365.791L499.118 364.739C506.46 363.024 514.866 359.437 523.154 355.037L523.279 356.157ZM474.687 346.424C474.368 346.637 474.036 346.85 473.704 347.062C471.463 334.518 471.563 318.55 472.859 301.525H473.948C472.671 318.288 472.552 334.049 474.687 346.43V346.424ZM563.002 327.783C559.665 331.67 553.281 336.909 546.233 341.948L546.039 340.784C552.98 335.789 558.614 331.038 561.731 327.602L563.002 327.789V327.783ZM580.541 230.549L579.533 230.06C582.218 212.703 577.167 195.777 566.426 183.997L567.559 183.659C568.898 185.155 570.156 186.739 571.327 188.41C579.658 200.29 582.944 215.482 580.547 230.549H580.541ZM551.904 171.922C551.797 172.254 551.691 172.599 551.584 172.937C547.053 170.758 542.064 169.237 536.674 168.505C533.526 168.073 530.415 167.992 527.379 168.229C527.373 167.885 527.367 167.528 527.354 167.159C528.468 167.071 529.589 167.034 530.715 167.034C532.743 167.034 534.797 167.178 536.818 167.447C542.151 168.179 547.222 169.694 551.904 171.922Z" fill="#DA5544"/>
<path d="M538.947 169.481C538.947 169.481 515.399 170.62 522.453 134.604C522.453 134.604 532.33 128.882 533.013 128.638C533.695 128.394 540.086 154.008 540.086 154.008L538.947 169.481Z" fill="black"/>
<path d="M551.07 158.859L543.966 181.474C536.085 183.477 529.625 181.287 524.587 174.902L531.691 152.286L551.07 158.859Z" fill="#F5BDC8"/>
<path d="M550.157 161.557L547.653 168.937C544.148 169.688 540.436 169.606 536.805 168.567C536.599 168.505 536.399 168.442 536.198 168.373C532.843 167.234 530.045 164.849 528.474 161.795L530.784 154.991L550.163 161.563L550.157 161.557Z" fill="#EA8096"/>
<path d="M567.433 144.155L563.383 150.922L560.91 154.584C557.336 164.067 547.083 169.225 537.337 166.433C536.367 166.157 535.415 165.732 534.533 165.181C534.195 164.968 533.863 164.737 533.544 164.486C533.475 164.436 533.412 164.38 533.344 164.33C532.148 163.347 531.14 162.095 530.452 160.63C528.968 157.438 528.355 154.277 527.898 151.06C527.497 148.249 527.209 145.501 527.228 142.803C527.253 139.592 527.729 136.444 529.006 133.314L535.059 115.055L562.469 129.371L567.426 144.174L567.433 144.155Z" fill="#F5BDC8"/>
<path d="M566.381 137.589C566.381 137.589 567.777 131.155 565.968 123.937C564.416 117.728 555.302 108.045 544.304 111.087C544.861 107.738 544.035 104.239 541.719 101.535C537.438 96.5397 529.72 96.1391 524.474 100.633C519.235 105.128 518.459 112.821 522.74 117.809C524.036 119.318 525.651 120.401 527.41 121.064C527.21 121.333 527.016 121.609 526.821 121.909C523.836 126.447 520.155 136.751 525.282 142.015C527.009 143.792 532.355 143.617 534.464 136.888C534.583 136.513 536.611 125.139 538.739 122.373C539.215 123.787 541.118 126.773 548.705 127.43C552.498 127.756 555.477 128.757 557.781 130.266C560.835 134.503 562.619 138.747 564.804 142.422C566.945 146.027 564.341 148.368 561.662 150.546C557.706 153.77 559.008 160.117 561.862 162.452C561.862 162.452 557.956 155.617 564.873 152.061C570.287 149.282 569.799 139.423 566.381 137.589Z" fill="black"/>
<path d="M527.454 144.037C523.344 144.037 520.011 140.704 520.011 136.594C520.011 132.484 523.344 129.152 527.454 129.152C531.564 129.152 534.896 132.484 534.896 136.594C534.896 140.704 531.564 144.037 527.454 144.037Z" fill="#F5BDC8"/>
<path d="M627.674 335.107C628.908 332.659 628.244 329.767 626.153 328.509L621.54 325.674L616.977 322.769C613.922 320.86 610.962 318.832 607.963 316.867C602.061 312.823 596.221 308.729 590.712 304.36C585.198 300.004 579.94 295.453 575.151 290.646C570.363 285.832 566.081 280.756 562.407 275.379C558.733 269.996 555.634 264.331 552.968 258.241C550.289 252.169 547.954 245.728 545.701 239.049C543.447 232.37 541.263 225.453 538.984 218.474C536.706 211.489 534.371 204.428 531.861 197.374C530.165 192.936 526.628 189.731 522.315 188.253C518.015 186.757 513.014 186.958 508.363 189.149C503.706 191.339 500.326 195.039 498.604 199.139C496.902 203.239 496.795 207.783 498.811 211.795C502.141 218.049 505.352 224.421 508.576 230.887C511.799 237.353 515.004 243.938 518.428 250.635C521.852 257.327 525.514 264.143 529.758 270.853C533.97 277.564 538.903 284.092 544.386 289.989C549.869 295.904 555.885 301.162 562.125 305.8C568.372 310.451 574.838 314.532 581.373 318.288C587.908 322.056 594.574 325.386 601.241 328.635C604.596 330.193 607.926 331.808 611.306 333.279L616.351 335.526L621.421 337.692C623.7 338.681 626.441 337.542 627.674 335.101V335.107Z" fill="#F5BDC8"/>
<path d="M513.852 256.513L496.996 218.987C491.901 207.639 496.032 194.331 507.38 189.236C518.729 184.135 533 189.174 538.095 200.528L554.952 238.054L513.846 256.519L513.852 256.513Z" fill="#FF654F"/>
<path d="M556.153 238.511L548.692 241.86L548.279 241.046L554.952 238.047L551.021 229.297L551.765 228.74L556.153 238.504V238.511ZM546.514 219.263L539.503 203.652L540.298 203.207L547.315 218.831L546.514 219.257V219.263ZM533.45 192.673L533.006 193.499C526.321 187.346 516.005 185.362 507.386 189.242C502.309 191.521 498.679 195.446 496.676 200.096L495.812 199.796C497.99 194.707 501.909 190.707 507.01 188.41C508.312 187.828 509.677 187.358 511.073 187.02C519.172 185.055 527.629 187.402 533.45 192.673ZM541.318 244.176L541.763 244.977L527.266 251.487L526.903 250.654L541.325 244.176H541.318ZM498.26 221.798L511.454 251.18L510.578 251.449L497.358 222.017L498.253 221.798H498.26Z" fill="#DA5544"/>
<path d="M630.241 353.462C630.088 344.26 625.33 336.932 616.439 335.146L616.427 335.144L503.413 318.34C503.407 318.34 503.401 318.339 503.394 318.338C503.38 318.337 503.349 318.333 503.309 318.321C489.381 315.527 475.815 324.544 473.005 338.473C470.92 348.803 475.334 358.932 483.437 364.633H483.444L483.572 364.723C486.372 366.669 489.601 368.087 493.157 368.806L493.158 368.806C493.152 368.805 493.206 368.813 493.361 368.833C493.5 368.851 493.701 368.876 493.959 368.908C494.475 368.972 495.221 369.061 496.174 369.173C498.08 369.396 500.811 369.706 504.18 370.068C510.917 370.792 520.203 371.724 530.535 372.584C551.209 374.304 576.039 375.733 593.027 374.637L593.501 374.606L593.556 375.078L609.221 510.027L621.642 509.805L630.241 353.462Z" fill="white" stroke="black"/>
<path d="M519.51 372.113L519.354 373.164C504.006 371.725 492.983 370.373 492.832 370.341C490.654 369.903 488.57 369.215 486.592 368.282L487.706 367.618C489.383 368.351 491.167 368.92 493.039 369.302C493.264 369.346 504.256 370.686 519.504 372.119L519.51 372.113ZM631.799 353.453V353.491L631.655 356.17H630.584L630.735 353.466C630.585 344.07 625.702 336.478 616.501 334.644L567.596 327.37L568.052 326.362L616.707 333.598C625.846 335.426 631.624 343.031 631.799 353.453ZM620.069 510.328L619.943 511.398L607.819 511.617L605.234 489.334L606.292 489.202L608.77 510.528L620.069 510.328ZM627.524 431.208L623.524 503.912L622.428 504.413L626.453 431.208H627.524ZM603.443 464.703L602.398 464.947L592.101 376.263C588.352 376.482 584.083 376.588 579.388 376.588C574.049 376.588 568.378 376.45 562.588 376.213V375.149C573.717 375.605 584.396 375.693 593.046 375.136L603.443 464.703ZM630.509 376.945L629.157 401.532L628.081 401.689L629.427 377.17L630.509 376.945Z" fill="#4D5060"/>
<path d="M704.338 339.406L549.031 325.982L549.482 320.769L704.789 334.192L704.338 339.406Z" fill="#4D5060"/>
<path d="M704.741 334.137L608.276 325.811L644.894 249.427L741.353 257.759L704.741 334.137Z" fill="#1C1F30"/>
<path d="M679.653 299.134C676.993 307.058 672.454 312.685 669.519 311.703C666.583 310.72 666.358 303.49 669.018 295.566C671.678 287.641 676.216 282.014 679.152 282.997C682.088 283.979 682.313 291.209 679.653 299.134Z" fill="white"/>
<path d="M203.814 796.104C145.425 787.397 105.158 733.002 113.865 674.614C122.572 616.226 176.967 575.958 235.355 584.665C293.743 593.372 334.011 647.767 325.304 706.155C316.591 764.544 262.202 804.811 203.814 796.104ZM185.211 665.412C174.494 663.816 164.504 671.209 162.908 681.925C161.312 692.641 168.704 702.631 179.421 704.227C190.137 705.824 200.127 698.431 201.723 687.715C203.319 676.999 195.927 667.009 185.211 665.412Z" fill="#CFA935"/>
<path d="M232.022 607.043C185.986 600.174 143.112 631.924 136.243 677.953C129.38 723.983 161.124 766.863 207.153 773.732L208.157 773.882C253.81 780.139 296.113 748.517 302.932 702.822C309.795 656.793 278.051 613.912 232.022 607.043ZM232.022 607.043L232.538 603.581L232.022 607.043ZM159.446 681.409C161.327 668.779 173.1 660.07 185.726 661.951C198.356 663.832 207.065 675.604 205.185 688.231C203.303 700.861 191.531 709.57 178.905 707.689C166.275 705.808 157.565 694.035 159.446 681.409Z" fill="white" stroke="#CFA935" stroke-width="7"/>
<path d="M669.862 789.995L640.762 724.746C637.539 717.516 632.205 712.891 626.027 711.97L589.453 706.512L585.103 735.694L574.055 734.048L577.729 709.423L555.64 706.13L553.349 721.479L512.537 715.388L515.504 695.483L470.987 688.842L466.042 721.992L441.742 718.368L446.687 685.217L423.49 681.756L419.728 706.957L374.854 700.259L351.237 670.971L317.273 665.907L305.881 742.291L666.983 796.16C669.28 796.504 671.07 792.68 669.875 789.995H669.862Z" fill="#CFA935"/>
<path d="M619.979 776.583L340.868 734.969L342.125 726.537L621.236 768.151L619.979 776.583Z" fill="#4D5060"/>
<path d="M68.1403 757.339C74.9005 732.282 91.3254 710.287 112.827 695.959C112.996 699.32 113.327 702.65 113.809 705.942C95.9448 719.081 82.3994 738.129 76.5968 759.624C73.5297 770.985 74.0805 779.767 78.2368 785.719C84.634 794.883 99.0308 795.403 108.708 790.627C114.273 787.879 119.067 783.723 123.305 779.003C127.536 774.283 131.211 769 134.541 763.999C135.617 762.384 136.688 760.763 137.739 759.129C146.152 746.197 154.039 732.771 161.237 719.144C162.082 717.554 163.159 715.789 164.298 713.917C166.758 709.88 170.013 704.534 170.758 700.672C170.871 700.109 170.921 699.583 170.914 699.088C170.852 695.664 167.24 692.003 163.453 690.244C162.696 687.621 162.477 684.798 162.909 681.925C162.959 681.568 163.021 681.218 163.096 680.873C163.315 680.923 163.535 680.98 163.754 681.042C171.453 683.139 179.515 690.406 179.671 698.926C179.703 700.628 179.421 702.381 178.92 704.14C177.556 708.991 174.532 713.955 171.778 718.474C170.714 720.227 169.706 721.885 168.987 723.237C161.306 737.766 152.862 752.068 143.849 765.814C143.179 766.835 142.509 767.849 141.833 768.863C134.541 779.804 125.665 792.029 112.589 798.489C107.512 800.992 101.56 802.37 95.6319 802.37C86.1363 802.37 76.7032 798.833 71.0447 790.733C65.3423 782.558 64.3658 771.323 68.1403 757.339Z" fill="#CFA935"/>
<path d="M424.843 99.8134L316.247 99.8134V20.8315L424.843 20.8315V99.8134Z" fill="#CFA935"/>
<path d="M424.849 99.8197V129.984L382.065 99.8197H424.849Z" fill="#A2801A"/>
<path d="M344.677 64.8981H335.538V55.7593H344.677V64.8981Z" fill="white"/>
<path d="M364.97 64.8981H355.831V55.7593H364.97V64.8981Z" fill="white"/>
<path d="M385.264 64.8981H376.125V55.7593H385.264V64.8981Z" fill="white"/>
<path d="M405.557 64.8981H396.418V55.7593H405.557V64.8981Z" fill="white"/>
<path d="M752.263 100.408H860.858V179.39H752.263V100.408Z" fill="#4D5060"/>
<path d="M752.263 179.39V209.554L795.04 179.39H752.263Z" fill="#1C1F30"/>
<path d="M832.434 135.33H841.573V144.468H832.434V135.33Z" fill="white"/>
<path d="M812.141 135.33H821.28V144.468H812.141V135.33Z" fill="white"/>
<path d="M791.847 135.33H800.986V144.468H791.847V135.33Z" fill="white"/>
<path d="M771.549 135.33H780.688V144.468H771.549V135.33Z" fill="white"/>
<path d="M723.019 579.983C724.189 585.542 726.392 590.881 729.453 595.67C730.067 596.627 730.705 597.56 731.369 598.461C734.636 602.849 738.63 606.649 743.149 609.653C751.894 615.393 762.635 618.078 773.057 617.202C771.911 633.927 770.772 650.646 769.602 667.34C769.602 667.503 769.577 667.66 769.577 667.816C769.526 668.586 769.47 669.356 769.445 670.132C769.076 676.166 769.019 682.332 771.467 687.84C771.974 688.954 772.612 690.018 773.357 691.033C773.676 691.433 773.996 691.802 774.315 692.178C775.617 693.668 777.188 694.913 778.809 695.765C779.21 695.977 779.604 696.165 780.005 696.347C783.804 697.862 787.848 697.248 790.452 692.679C796.436 682.257 799.81 669.124 804.116 657.876C812.861 634.985 821.079 611.857 827.802 588.271C832.616 571.364 836.653 554.188 839.551 536.824C841.304 536.906 843.244 536.799 845.266 536.561H845.291C845.93 536.48 846.593 536.374 847.257 536.267H847.282C851.72 535.579 856.107 534.352 859.087 533.344C859.938 533.05 860.658 532.762 861.24 532.518C861.29 532.493 861.347 532.468 861.397 532.436H861.422C870.698 528.368 877.934 520.656 882.635 511.805C885.239 506.86 887.104 501.571 888.375 496.119V496.063C888.669 494.974 888.907 493.884 889.12 492.795V492.77C889.733 489.766 890.159 486.786 890.478 483.757C891.198 476.978 891.248 469.748 887.956 463.789C887.054 462.168 885.827 460.678 884.394 459.426C884.025 459.107 883.624 458.788 883.223 458.493C879.555 455.833 874.873 454.719 870.78 456.553C864.533 459.37 862.536 467.131 861.315 473.86C859.744 482.448 858.179 491.036 856.608 499.624C855.012 508.45 852.809 518.922 844.509 523.949C843.926 524.293 842.725 524.744 841.266 525.251C843.682 507.649 844.828 489.916 844.321 472.158C844.083 464.158 843.495 456.021 840.653 448.547C837.917 441.286 832.76 434.645 825.661 431.584C825.449 431.478 825.211 431.371 824.998 431.29C824.76 431.208 824.522 431.102 824.278 431.052C821.674 430.119 818.932 429.725 816.197 429.831C815.771 429.831 815.321 429.856 814.895 429.881C811.784 430.119 808.698 430.97 805.8 432.272C805.293 432.485 804.761 432.723 804.26 432.992C800.567 434.851 797.243 437.487 794.583 440.623C784.743 452.24 783.26 468.54 782.221 483.694C781.369 496.294 780.493 508.87 779.642 521.47C773.076 515.623 766.879 509.345 762.704 501.665C760.682 497.94 759.142 493.903 756.482 490.604C754.942 488.639 752.864 486.961 750.579 486.029C750.103 485.816 749.621 485.659 749.114 485.553C747.944 485.284 746.723 485.209 745.528 485.422C739.625 486.429 736.489 493.634 737.766 499.487C739.018 505.364 743.324 510.015 747.524 514.265C752.657 519.423 757.921 524.449 763.342 529.288L765.758 531.416C769.614 534.871 773.545 538.22 777.539 541.463C777.751 541.625 777.989 541.807 778.202 541.995C777.539 551.722 776.875 561.43 776.205 571.132C775.435 582.456 774.665 593.754 773.889 605.059C768.043 604.02 761.445 606.041 756.688 601.629C754.297 599.419 752.964 596.602 752.25 593.491C752.012 592.483 751.825 591.444 751.718 590.355V590.33C750.998 584.058 752.012 577.117 751.612 571.639C751.268 566.907 749.671 561.806 746.667 558.269C746.348 557.869 746.003 557.499 745.628 557.155C744.138 555.69 742.329 554.632 740.232 554.094C737.653 553.431 734.993 553.75 732.577 554.758C732.045 554.97 731.513 555.24 731.006 555.528C728.402 556.961 726.192 559.196 724.759 561.8C721.779 567.252 721.754 573.868 723.006 579.958L723.019 579.983Z" fill="#CFA935"/>
<path d="M778.797 695.771C779.197 695.984 779.592 696.172 779.992 696.353C796.317 653.551 812.479 609.415 821.198 563.821C829.574 520.087 831.063 475.688 825.668 431.609C825.455 431.503 825.217 431.396 825.004 431.315C824.766 431.233 824.528 431.127 824.284 431.077C829.761 475.237 828.272 519.711 819.896 563.552C811.202 609.015 795.09 653.069 778.797 695.765V695.771Z" fill="#4D5060"/>
<path d="M773.345 691.033C773.665 691.433 773.984 691.802 774.303 692.178C808.705 609.415 823.114 519.267 816.204 429.856C815.778 429.856 815.328 429.881 814.902 429.906C821.787 518.891 807.485 608.614 773.345 691.033Z" fill="#4D5060"/>
<path d="M769.439 670.138C775.98 659.691 780.869 647.223 783.742 633.289C787.598 614.761 787.892 595.507 788.211 576.897C788.261 572.459 788.343 568.015 788.449 563.602C789.645 519.392 795.466 475.281 805.807 432.298C805.3 432.51 804.768 432.748 804.267 433.017C794.033 475.769 788.286 519.605 787.116 563.577C787.009 567.99 786.928 572.428 786.878 576.872C786.559 595.432 786.265 614.623 782.44 633.02C779.78 645.858 775.392 657.482 769.602 667.34C769.602 667.503 769.577 667.66 769.577 667.816C769.527 668.586 769.47 669.356 769.445 670.132L769.439 670.138Z" fill="#4D5060"/>
<path d="M845.285 536.574C845.923 536.493 846.587 536.386 847.25 536.28H847.275C866.098 514.534 879.073 487.706 884.388 459.445C884.018 459.126 883.618 458.806 883.217 458.512C877.928 487.306 864.633 514.609 845.279 536.568L845.285 536.574Z" fill="#4D5060"/>
<path d="M859.087 533.357C859.938 533.062 860.658 532.774 861.24 532.53C861.291 532.505 861.347 532.48 861.397 532.449H861.422L886.835 498.235C887.342 497.546 887.874 496.826 888.375 496.138V496.081C888.669 494.992 888.907 493.903 889.12 492.814C888.031 494.354 886.911 495.869 885.771 497.44L859.081 533.357H859.087Z" fill="#4D5060"/>
<path d="M749.127 485.578C752.288 500.626 757.051 515.273 763.349 529.313L765.765 531.441C759.011 516.9 753.909 501.69 750.585 486.06C750.11 485.847 749.628 485.691 749.121 485.584L749.127 485.578Z" fill="#4D5060"/>
<path d="M729.453 595.67C730.066 596.627 730.705 597.56 731.368 598.461C728.389 584.077 728.789 568.923 732.589 554.783C732.057 554.996 731.525 555.265 731.018 555.553C727.669 568.554 727.162 582.381 729.447 595.67H729.453Z" fill="#4D5060"/>
<path d="M746.173 581.93C747.557 586.049 749.653 589.986 752.264 593.523C752.026 592.515 751.838 591.476 751.732 590.387V590.362C749.923 587.595 748.464 584.622 747.425 581.511C744.953 574.118 744.715 565.849 746.68 558.301C746.361 557.9 746.017 557.531 745.641 557.186C743.356 565.217 743.513 574.043 746.173 581.936V581.93Z" fill="#4D5060"/>
<path d="M727.112 685.174L728.408 695.639L728.959 700.059L737.866 772.017C739.581 785.82 751.305 796.185 765.213 796.185H802.138C816.04 796.185 827.777 785.82 829.486 772.017L838.399 700.059L838.944 695.639L840.239 685.174C841.147 677.819 835.413 671.328 828.002 671.328H739.337C731.926 671.328 726.186 677.819 727.099 685.174H727.112Z" fill="#FF654F"/>
<path d="M757.132 782.921C750.134 782.921 743.718 780.411 738.729 776.249C742.072 787.879 752.769 796.179 765.213 796.179H802.138C814.575 796.179 825.279 787.885 828.615 776.255C823.633 780.418 817.217 782.921 810.219 782.921H757.126H757.132Z" fill="#DA5544"/>
<path d="M728.402 695.639L728.959 700.059H838.399L838.95 695.639H728.402Z" fill="#DA5544"/>
<path d="M173.5 96.7526C193.587 96.7526 209.924 80.4091 209.924 60.3287C209.924 40.2484 193.58 23.9049 173.5 23.9049C153.42 23.9049 137.076 40.2421 137.076 60.3287C137.076 80.4154 153.42 96.7526 173.5 96.7526ZM173.5 36.4176C186.682 36.4176 197.405 47.14 197.405 60.3225C197.405 73.5049 186.682 84.2274 173.5 84.2274C160.318 84.2274 149.595 73.5049 149.595 60.3225C149.595 47.14 160.318 36.4176 173.5 36.4176Z" fill="#E5E6EB"/>
<path d="M690.625 47.8098C703.808 47.8098 714.53 37.0873 714.53 23.9049C714.53 10.7225 703.808 0 690.625 0C677.443 0 666.72 10.7225 666.72 23.9049C666.72 37.0873 677.443 47.8098 690.625 47.8098ZM690.625 8.21242C699.276 8.21242 706.318 15.2481 706.318 23.9049C706.318 32.5617 699.282 39.5974 690.625 39.5974C681.969 39.5974 674.933 32.5617 674.933 23.9049C674.933 15.2481 681.975 8.21242 690.625 8.21242Z" fill="#1C1F30"/>
<path d="M886.628 321.255H934.444V273.439H886.628V321.255ZM926.219 313.036H894.841V281.657H926.219V313.036Z" fill="#E5E6EB"/>
<path d="M131.806 403.773L170.232 365.346L131.806 326.919L93.3788 365.346L131.806 403.773ZM157.025 365.346L131.806 390.566L106.586 365.346L131.806 340.127L157.025 365.346Z" fill="#1C1F30"/>
<path d="M894.841 602.602L920.061 627.822L894.841 653.042L869.621 627.822L894.841 602.602Z" fill="#1C1F30"/>
<path d="M0.000244141 796.611H1001.51V806H0.000244141V796.611Z" fill="#E5E6EB"/>
</svg>
