<svg width="500" height="500" viewBox="0 0 500 500" fill="none" xmlns="http://www.w3.org/2000/svg">
<path d="M500 382.4H0V382.65H500V382.4Z" fill="#EBEBEB"/>
<path d="M111.66 390.79H78.54V391.04H111.66V390.79Z" fill="#EBEBEB"/>
<path d="M163.5 398H133.33V398.25H163.5V398Z" fill="#EBEBEB"/>
<path d="M95.0996 400.07H56.8496V400.32H95.0996V400.07Z" fill="#EBEBEB"/>
<path d="M449.9 399.53H434V399.78H449.9V399.53Z" fill="#EBEBEB"/>
<path d="M430.79 399.53H391.47V399.78H430.79V399.53Z" fill="#EBEBEB"/>
<path d="M280.33 390.66H250V390.91H280.33V390.66Z" fill="#EBEBEB"/>
<path d="M356.77 390.66H284.67V390.91H356.77V390.66Z" fill="#EBEBEB"/>
<path d="M237.01 337.8H43.9102C40.7602 337.8 38.2002 335.24 38.2002 332.09V60.66C38.2002 57.51 40.7602 54.95 43.9102 54.95H237.01C240.16 54.95 242.72 57.51 242.72 60.66V332.09C242.72 335.24 240.16 337.8 237.01 337.8ZM43.9102 55.2C40.9002 55.2 38.4502 57.65 38.4502 60.66V332.09C38.4502 335.1 40.9002 337.55 43.9102 337.55H237.01C240.02 337.55 242.47 335.1 242.47 332.09V60.66C242.47 57.65 240.02 55.2 237.01 55.2H43.9102Z" fill="#EBEBEB"/>
<path d="M453.31 337.8H260.21C257.06 337.8 254.5 335.24 254.5 332.09V60.66C254.5 57.51 257.06 54.95 260.21 54.95H453.31C456.46 54.95 459.02 57.51 459.02 60.66V332.09C459.02 335.24 456.46 337.8 453.31 337.8ZM260.21 55.2C257.2 55.2 254.75 57.65 254.75 60.66V332.09C254.75 335.1 257.2 337.55 260.21 337.55H453.31C456.32 337.55 458.77 335.1 458.77 332.09V60.66C458.77 57.65 456.32 55.2 453.31 55.2H260.21Z" fill="#EBEBEB"/>
<path d="M293.389 266.21H264.619V382.4H293.389V266.21Z" fill="#E6E6E6"/>
<path d="M281.43 382.4H293.39V362.36H268.89L281.43 382.4Z" fill="#F5F5F5"/>
<path d="M85.6196 266.21H56.8496V382.4H85.6196V266.21Z" fill="#E6E6E6"/>
<path d="M293.38 266.21H75.1797V375.5H293.38V266.21Z" fill="#F5F5F5"/>
<path d="M284.61 299.76H83.96V275.86H284.61V299.76ZM84.96 298.76H283.61V276.86H84.96V298.76Z" fill="#EBEBEB"/>
<path d="M87.1397 382.4H75.1797V362.36H99.6797L87.1397 382.4Z" fill="#F5F5F5"/>
<path d="M284.61 365.85H83.96V308.9H284.61V365.85ZM84.96 364.85H283.61V309.9H84.96V364.85Z" fill="#EBEBEB"/>
<path d="M407.869 78.52H180.489V235.98H407.869V78.52Z" fill="#E6E6E6"/>
<path d="M412.049 78.52H184.669V235.98H412.049V78.52Z" fill="#F5F5F5"/>
<path d="M404.539 228.04V86.48L192.169 86.48V228.04H404.539Z" fill="white"/>
<path d="M404.549 228.03V86.47H401.389V228.03H404.549Z" fill="#E6E6E6"/>
<path d="M408.94 99.15H187.77V104.49H408.94V99.15Z" fill="#F5F5F5"/>
<g opacity="0.5">
<path d="M408.33 73.26H399.35V248.15H408.33V73.26Z" fill="#F0F0F0"/>
<path d="M396.919 73.26H387.939V248.15H396.919V73.26Z" fill="#F0F0F0"/>
<path d="M385.509 73.26H376.529V248.15H385.509V73.26Z" fill="#F0F0F0"/>
<path d="M374.11 73.26H365.13V248.15H374.11V73.26Z" fill="#F0F0F0"/>
<path d="M362.7 73.26H353.72V248.15H362.7V73.26Z" fill="#F0F0F0"/>
<path d="M351.29 73.26H342.31V248.15H351.29V73.26Z" fill="#F0F0F0"/>
<path d="M339.889 73.26H330.909V248.15H339.889V73.26Z" fill="#F0F0F0"/>
<path d="M328.479 73.26H319.499V248.15H328.479V73.26Z" fill="#F0F0F0"/>
<path d="M317.07 73.26H308.09V248.15H317.07V73.26Z" fill="#F0F0F0"/>
<path d="M305.66 73.26H296.68V248.15H305.66V73.26Z" fill="#F0F0F0"/>
<path d="M294.259 73.26H285.279V248.15H294.259V73.26Z" fill="#F0F0F0"/>
<path d="M282.849 73.26H273.869V248.15H282.849V73.26Z" fill="#F0F0F0"/>
<path d="M271.439 73.26H262.459V248.15H271.439V73.26Z" fill="#F0F0F0"/>
<path d="M260.03 73.26H251.05V248.15H260.03V73.26Z" fill="#F0F0F0"/>
<path d="M248.629 73.26H239.649V248.15H248.629V73.26Z" fill="#F0F0F0"/>
</g>
<path d="M128.25 97.33H62.3496V217.17H128.25V97.33Z" fill="#F0F0F0"/>
<path d="M142.4 97.33H66.5996V217.17H142.4V97.33Z" fill="#F5F5F5"/>
<path d="M69.6895 100.17V214.33H139.309V100.17H69.6895Z" fill="white"/>
<path d="M88.25 122.89V191.61C88.25 193.134 89.4857 194.37 91.01 194.37H118C119.524 194.37 120.76 193.134 120.76 191.61V122.89C120.76 121.366 119.524 120.13 118 120.13H91.01C89.4857 120.13 88.25 121.366 88.25 122.89Z" fill="#F5F5F5"/>
<path d="M383.91 197.29L397.39 230.51C397 326.6 401.34 332.14 401.38 348.67H367.35C366.13 268.24 378.05 286.32 383.91 197.29Z" fill="#EBEBEB"/>
<path d="M402.91 295.42C375.52 220.01 312.47 243.37 315.29 270.85C318.11 298.33 418.66 338.79 402.91 295.42Z" fill="#EBEBEB"/>
<path d="M392.55 338.9C377.61 290.3 337.87 298.24 337.87 320.57C337.87 342.9 401.14 366.85 392.55 338.9Z" fill="#EBEBEB"/>
<path d="M391.49 251.18C368.03 186.22 309.6 195.16 314.31 222.57C319.02 249.98 404.98 288.54 391.49 251.18Z" fill="#EBEBEB"/>
<path d="M391.65 222.05C393.82 177.79 350 159.58 353.03 186.02C356.07 212.47 390.4 247.5 391.65 222.05Z" fill="#EBEBEB"/>
<path d="M388.38 267.36C397.64 212.82 453.8 192.08 447.53 222.95C441.25 253.82 383.06 298.73 388.38 267.36Z" fill="#EBEBEB"/>
<path d="M383.65 236.53C372.74 179.34 423.2 153.93 424.66 181.5C426.12 209.07 389.93 269.42 383.65 236.53Z" fill="#EBEBEB"/>
<path d="M379.27 301.13C401.56 246.02 449.31 259.69 444.49 284.77C439.67 309.85 366.45 332.82 379.27 301.13Z" fill="#EBEBEB"/>
<path d="M390.269 339.61C389.769 304.05 422.049 294.86 422.429 315.46C422.809 336.06 390.559 360.06 390.269 339.61Z" fill="#EBEBEB"/>
<path d="M380.41 382.65C362.67 382.65 347.7 370.3 344.06 353.6C343.1 349.18 342 344.8 340.27 340.62L339.99 339.95H420.83L420.55 340.62C418.82 344.8 417.72 349.19 416.76 353.6C413.12 370.3 398.15 382.65 380.41 382.65Z" fill="#E0E0E0"/>
<path d="M250 427.56C357.083 427.56 443.89 422.492 443.89 416.24C443.89 409.988 357.083 404.92 250 404.92C142.918 404.92 56.1104 409.988 56.1104 416.24C56.1104 422.492 142.918 427.56 250 427.56Z" fill="#F5F5F5"/>
<path d="M129.369 213.94L128.739 213.16C131.319 211.07 134.079 209.15 136.949 207.45L137.459 208.31C134.629 209.98 131.909 211.87 129.379 213.93L129.369 213.94Z" fill="#407BFF"/>
<path d="M108.83 242.52L107.89 242.17C111.28 233.1 116.7 224.68 123.56 217.82L124.27 218.53C117.51 225.29 112.17 233.59 108.83 242.52Z" fill="#407BFF"/>
<path d="M302.57 286.59C302.33 257.37 278.58 233.77 249.3 233.77C242.25 233.77 235.52 235.15 229.36 237.64C218.9 216.24 196.92 201.49 171.49 201.49C140.74 201.49 115.04 223.06 108.65 251.88C79.7296 253.74 56.8496 277.77 56.8496 307.16C56.8496 336.55 81.6596 362.57 112.26 362.57H288.58C310.27 362.57 327.86 344.98 327.86 323.29C327.86 306.52 317.35 292.22 302.57 286.58V286.59Z" fill="#1C1F30"/>
<path d="M262.43 268.69H121.33C118.95 268.69 117 266.74 117 264.36C117 261.98 118.95 260.03 121.33 260.03H262.43C264.81 260.03 266.76 261.98 266.76 264.36C266.76 266.74 264.81 268.69 262.43 268.69Z" fill="white"/>
<path d="M266.939 184.63L248.229 264.35H136.609L167.829 131.3L245.119 149.43L266.939 184.63Z" fill="#CFA935"/>
<path opacity="0.8" d="M266.939 184.63L248.229 264.35H136.609L167.829 131.3L245.119 149.43L266.939 184.63Z" fill="#FAFAFA"/>
<path d="M252.379 199.45L167.599 179.56C166.379 179.27 165.619 178.05 165.909 176.83C166.199 175.61 167.419 174.85 168.639 175.14L253.419 195.03C254.639 195.32 255.399 196.54 255.109 197.76C254.819 198.98 253.599 199.74 252.379 199.45Z" fill="#CFA935"/>
<path d="M249.139 213.25L164.359 193.36C163.139 193.07 162.379 191.85 162.669 190.63C162.959 189.41 164.179 188.65 165.399 188.94L250.179 208.83C251.399 209.12 252.159 210.34 251.869 211.56C251.579 212.78 250.359 213.54 249.139 213.25Z" fill="#CFA935"/>
<path d="M245.9 227.04L161.12 207.15C159.9 206.86 159.14 205.64 159.43 204.42C159.72 203.2 160.94 202.44 162.16 202.73L246.94 222.62C248.16 222.91 248.92 224.13 248.63 225.35C248.34 226.57 247.12 227.33 245.9 227.04Z" fill="#CFA935"/>
<path d="M242.669 240.84L157.889 220.95C156.669 220.66 155.909 219.44 156.199 218.22C156.489 217 157.709 216.24 158.929 216.53L243.709 236.42C244.929 236.71 245.689 237.93 245.399 239.15C245.109 240.37 243.889 241.13 242.669 240.84Z" fill="#CFA935"/>
<path d="M205.719 246.73L154.639 234.75C153.419 234.46 152.659 233.24 152.949 232.02C153.239 230.8 154.459 230.04 155.679 230.33L206.759 242.31C207.979 242.6 208.739 243.82 208.449 245.04C208.159 246.26 206.939 247.02 205.719 246.73Z" fill="#CFA935"/>
<path d="M266.94 184.63L238.43 177.94L245.12 149.43L266.94 184.63Z" fill="#CFA935"/>
<path d="M286.09 260.33L262.39 416.23H267.07L270.21 395.6H330.59L327.45 416.23H332.13L355.83 260.33H286.09ZM331.21 391.48H270.83L274.19 369.36H334.57L331.21 391.48ZM335.2 365.23H274.82L278.18 343.11H338.56L335.2 365.23ZM339.19 338.98H278.81L282.17 316.86H342.55L339.19 338.98ZM343.19 312.73H282.81L286.17 290.61H346.55L343.19 312.73ZM286.8 286.47L290.16 264.35H350.54L347.18 286.47H286.8Z" fill="#263238"/>
<path d="M365.58 260.33H295.84L319.54 416.23H324.22L321.08 395.6H381.46L384.6 416.23H389.28L365.58 260.33ZM301.13 264.35H361.51L364.87 286.47H304.49L301.13 264.35ZM305.12 290.6H365.5L368.86 312.72H308.48L305.12 290.6ZM309.11 316.86H369.49L372.85 338.98H312.47L309.11 316.86ZM313.1 343.11H373.48L376.84 365.23H316.46L313.1 343.11ZM320.45 391.48L317.09 369.36H377.47L380.83 391.48H320.45Z" fill="#263238"/>
<path opacity="0.4" d="M365.58 260.33H295.84L319.54 416.23H324.22L321.08 395.6H381.46L384.6 416.23H389.28L365.58 260.33ZM301.13 264.35H361.51L364.87 286.47H304.49L301.13 264.35ZM305.12 290.6H365.5L368.86 312.72H308.48L305.12 290.6ZM309.11 316.86H369.49L372.85 338.98H312.47L309.11 316.86ZM313.1 343.11H373.48L376.84 365.23H316.46L313.1 343.11ZM320.45 391.48L317.09 369.36H377.47L380.83 391.48H320.45Z" fill="white"/>
<path d="M335.7 108.58C337.7 110.12 339.46 111.67 341.29 113.26C343.1 114.84 344.85 116.5 346.57 118.2C350.01 121.59 353.29 125.19 356.33 129.12L357.45 130.63L358.01 131.39C358.33 131.83 358.63 132.32 358.86 132.78C359.82 134.66 360.11 136.4 360.24 137.96C360.45 141.07 359.98 143.7 359.39 146.22C358.14 151.23 356.26 155.66 353.85 160.02L348.74 157.94C349.71 153.59 350.58 149.03 350.91 144.82C351.07 142.73 351.05 140.66 350.73 139.11C350.57 138.35 350.3 137.78 350.13 137.6C350.09 137.55 350.06 137.55 350.03 137.52L349.49 136.91L348.42 135.68C345.46 132.44 342.26 129.28 338.92 126.24C335.62 123.19 332.12 120.14 328.76 117.31L335.7 108.61V108.58Z" fill="#F5BDC8"/>
<path d="M350.76 155.85L345.02 159.81L352.06 164.05C352.06 164.05 355.67 160.6 354.12 157.39L350.76 155.85Z" fill="#F5BDC8"/>
<path d="M342.149 166.42L347.449 169.39L352.049 164.04L345.009 159.8L342.149 166.42Z" fill="#F5BDC8"/>
<path d="M296.55 87.68C296.72 88.33 296.51 88.94 296.08 89.05C295.66 89.16 295.18 88.72 295.01 88.08C294.84 87.43 295.05 86.82 295.48 86.71C295.9 86.6 296.38 87.04 296.55 87.68Z" fill="#263238"/>
<path d="M296.56 88.93C296.56 88.93 296.05 93.04 294.89 95.25C296.31 96.02 298.13 95.04 298.13 95.04L296.56 88.93Z" fill="#CB95A0"/>
<path d="M297.92 83.51C297.84 83.53 297.76 83.53 297.68 83.5C296.05 82.86 294.87 83.69 294.85 83.7C294.67 83.83 294.43 83.79 294.3 83.61C294.17 83.43 294.22 83.19 294.39 83.06C294.45 83.02 295.94 81.98 297.96 82.77C298.16 82.85 298.26 83.08 298.18 83.28C298.13 83.4 298.03 83.49 297.91 83.52L297.92 83.51Z" fill="#263238"/>
<path d="M317.05 89.5C317.98 95.6 319.29 104.95 324.65 107.32C324.65 107.32 325.17 113.66 314.59 117.47C302.95 121.66 306.95 113.69 306.95 113.69C312.76 109.89 310.9 105.23 308.2 101.2L317.06 89.5H317.05Z" fill="#F5BDC8"/>
<path d="M325.65 106.04C325.68 104.13 323.7 100.82 321.73 101.04C319.56 101.28 311.28 104.34 308.26 107.13C305.24 109.92 307.38 114.81 307.38 114.81L325.65 106.04Z" fill="#212434"/>
<path d="M389.5 337.2C388.98 337.74 388.39 338.19 387.92 338.13C387.73 338.11 387.47 337.99 387.33 337.55C387.26 337.32 387.29 337.09 387.42 336.88C387.98 335.93 390.39 335.44 390.5 335.42C390.57 335.41 390.64 335.43 390.68 335.49C390.72 335.55 390.72 335.62 390.68 335.68C390.48 336.01 390.02 336.66 389.5 337.2ZM387.86 336.89C387.81 336.95 387.76 337 387.73 337.06C387.65 337.19 387.63 337.32 387.67 337.45C387.77 337.76 387.92 337.78 387.97 337.79C388.49 337.85 389.53 336.78 390.16 335.86C389.44 336.04 388.32 336.41 387.86 336.89Z" fill="#407BFF"/>
<path d="M390.66 335.71C390.66 335.71 390.62 335.75 390.59 335.75C389.76 336.01 387.59 335.95 387.11 335.27C387.02 335.15 386.91 334.89 387.17 334.55C387.33 334.33 387.56 334.21 387.85 334.17C388.94 334.04 390.59 335.39 390.66 335.45C390.71 335.49 390.73 335.55 390.72 335.62C390.72 335.65 390.7 335.68 390.67 335.71H390.66ZM387.49 334.71C387.49 334.71 387.45 334.75 387.44 334.77C387.3 334.95 387.36 335.04 387.39 335.08C387.67 335.48 389.2 335.66 390.14 335.51C389.64 335.14 388.58 334.45 387.88 334.53C387.72 334.55 387.59 334.61 387.49 334.71Z" fill="#407BFF"/>
<path d="M329.01 358.1C328.07 358.1 327.16 357.97 326.85 357.55C326.74 357.4 326.66 357.15 326.86 356.79C326.98 356.59 327.16 356.45 327.41 356.38C328.63 356.05 331.2 357.51 331.31 357.57C331.37 357.61 331.41 357.68 331.39 357.75C331.38 357.82 331.32 357.88 331.25 357.89C330.78 357.98 329.87 358.1 329 358.1H329.01ZM327.85 356.68C327.73 356.68 327.61 356.69 327.51 356.72C327.35 356.76 327.24 356.84 327.17 356.96C327.05 357.18 327.09 357.28 327.14 357.34C327.48 357.81 329.34 357.83 330.7 357.63C330.02 357.28 328.7 356.67 327.85 356.67V356.68Z" fill="#407BFF"/>
<path d="M331.229 357.9C331.229 357.9 331.179 357.9 331.159 357.88C330.269 357.48 328.519 355.89 328.649 355.06C328.679 354.87 328.819 354.62 329.299 354.57C329.649 354.53 329.979 354.63 330.259 354.87C331.189 355.64 331.389 357.62 331.399 357.7C331.399 357.76 331.379 357.82 331.329 357.86C331.299 357.88 331.259 357.89 331.229 357.89V357.9ZM329.439 354.92C329.439 354.92 329.369 354.92 329.339 354.92C329.029 354.95 329.009 355.08 328.999 355.12C328.919 355.62 330.109 356.87 331.019 357.41C330.929 356.83 330.659 355.65 330.049 355.14C329.859 354.99 329.669 354.91 329.449 354.91L329.439 354.92Z" fill="#407BFF"/>
<path d="M339.309 357.73H331.959L331.229 340.71H338.579L339.309 357.73Z" fill="#F5BDC8"/>
<path d="M398.17 332.81L391.38 335.28L382.74 320.04L389.54 317.57L398.17 332.81Z" fill="#F5BDC8"/>
<path d="M390.31 334.61L396.05 328.68C396.26 328.46 396.59 328.42 396.85 328.58L402.55 332.08C403.14 332.44 403.23 333.27 402.74 333.76C400.7 335.8 399.61 336.68 397.08 339.29C395.53 340.89 390.91 346.33 388.76 348.55C386.66 350.72 384.14 348.94 384.82 347.84C387.87 342.91 389.71 338.22 389.8 335.78C389.82 335.34 390 334.92 390.3 334.61H390.31Z" fill="black"/>
<path d="M332.01 356.88H340.03C340.33 356.88 340.59 357.09 340.66 357.38L342.11 363.91C342.26 364.59 341.75 365.23 341.05 365.22C338.16 365.17 333.97 365 330.34 365C326.09 365 324.23 365.23 319.24 365.23C316.22 365.23 315.39 362.18 316.65 361.9C322.4 360.64 325.27 360.51 330.24 357.45C330.78 357.12 331.38 356.88 332.01 356.88Z" fill="black"/>
<path d="M312.05 123.17C310.92 126.02 309.72 128.67 308.48 131.39C307.25 134.09 305.92 136.75 304.56 139.41C301.78 144.7 298.81 149.91 295.11 154.97C294.18 156.23 293.18 157.48 292.08 158.72C291.53 159.35 290.97 159.93 290.31 160.58C289.45 161.4 288.62 161.99 287.82 162.5C286.22 163.51 284.7 164.17 283.19 164.79C281.69 165.4 280.2 165.9 278.72 166.34C272.8 168.08 266.98 169.09 260.97 169.64L259.85 164.24C265.2 162.3 270.64 160.3 275.65 158.06C276.89 157.49 278.11 156.89 279.25 156.28C280.38 155.67 281.46 155 282.26 154.37C282.66 154.06 282.98 153.75 283.15 153.54C283.5 153.14 283.92 152.65 284.3 152.16C285.07 151.17 285.83 150.1 286.56 148.97C288.05 146.75 289.43 144.34 290.76 141.89C292.1 139.44 293.38 136.93 294.63 134.39C297.12 129.32 299.53 124.07 301.75 118.95L312.05 123.18V123.17Z" fill="#F5BDC8"/>
<path d="M328.82 104.19C339.37 103.37 348.83 119 348.83 119L341.25 131.3C341.25 131.3 333.13 128.32 326.27 122.37C319.08 116.14 321.62 104.76 328.82 104.2V104.19Z" fill="#4D5060"/>
<path opacity="0.3" d="M328.16 117.36L339.25 132.29L338.75 132.9C338.75 132.9 334.93 129.86 330.52 125.56L328.17 117.36H328.16Z" fill="black"/>
<path d="M299.589 115.84C299.009 120.99 307.619 143.77 309.619 170.79L348.72 166.94C348.44 161.76 345.58 139.97 340.41 115.31C338.98 108.51 333.709 103.27 326.899 104.64C326.839 104.65 326.769 104.67 326.709 104.68C321.789 105.69 314.709 107.34 310.529 108.83C306.979 110.09 303.669 111.71 301.769 112.71C300.569 113.34 299.75 114.5 299.6 115.85L299.589 115.84Z" fill="#4D5060"/>
<path opacity="0.3" d="M303.55 134.76C304.21 137.51 304.9 140.49 305.58 143.66C311.53 142.25 310.38 129.06 310.5 128.89L303.55 134.76Z" fill="#212434"/>
<path d="M312.33 118.39C315.33 128.68 304.22 142.41 304.22 142.41L293.04 135.21C293.04 135.21 292.96 125.79 296.54 118.42C301.07 109.09 310.19 111.05 312.33 118.39Z" fill="#4D5060"/>
<path d="M260.04 163.29L255.55 162.68L255.62 172.06C255.62 172.06 261.67 172.67 265.03 168.51L264.37 166.74C263.67 164.88 262.01 163.56 260.04 163.29Z" fill="#F5BDC8"/>
<path d="M247.84 164.85L250.71 172.49L255.62 172.06L255.55 162.68L247.84 164.85Z" fill="#F5BDC8"/>
<path opacity="0.2" d="M331.229 340.72L331.639 350.28H338.989L338.579 340.72H331.229Z" fill="#B6B6B6"/>
<path opacity="0.2" d="M389.539 317.57L382.739 320.04L387.519 328.48L393.999 325.42L389.539 317.57Z" fill="#B6B6B6"/>
<path d="M317.76 80.78C319.31 88.85 320.62 93.49 317.66 98.59C313.2 106.27 302.46 105.14 298.54 97.7C295.01 91 293.07 78.93 300.03 73.78C306.89 68.7 316.22 72.71 317.77 80.77L317.76 80.78Z" fill="#F5BDC8"/>
<path d="M304.17 86.17C299.25 88.63 299.14 80.77 299.56 79.11C297.71 80.88 295.21 82.67 290.67 80.71C285.09 78.3 286.67 72 290.67 72.09C290.67 72.09 287.71 66.39 294.24 65.78C297.87 65.45 302.17 67 302.17 67C302.17 67 304.6 60.63 310.52 63.72C313.66 65.35 316.15 70.17 316.15 70.17C316.15 70.17 328.9 72.06 321.98 78.73C323.55 82.15 322.72 93.27 318.67 98.03C316.9 100.11 301.75 99.5 304.17 86.17Z" fill="#263238"/>
<path d="M313.939 73.42C313.939 73.42 316.249 70.24 316.429 62.88C321.829 68.74 313.939 73.42 313.939 73.42Z" fill="#263238"/>
<path d="M306.559 85.72C306.739 87.86 306.039 90.01 305.049 91.49C303.549 93.72 301.509 92.76 300.839 90.41C300.239 88.29 300.299 84.59 302.329 83.19C304.329 81.81 306.349 83.28 306.559 85.73V85.72Z" fill="#CB95A0"/>
<path d="M323.48 169.43C323.48 169.43 337.28 224.49 343.89 244.97C351.13 267.4 382.55 326.23 382.55 326.23L394.88 320.87C394.88 320.87 371.1 267.3 366.02 244.89C360.51 220.56 348.7 166.95 348.7 166.95L323.47 169.43H323.48Z" fill="black"/>
<path d="M378.91 322.17C378.86 322.19 382.95 327.95 382.95 327.95L396.8 321.83L394 316.1L378.91 322.16V322.17Z" fill="#4D5060"/>
<path opacity="0.3" d="M330.69 188.82C340.47 189.76 342.98 225.63 343.63 244.15C339.58 231.42 333.07 206.79 328.55 189.29C329.16 188.91 329.86 188.74 330.68 188.82H330.69Z" fill="black"/>
<path d="M309.609 170.79C309.609 170.79 311.199 227.31 314.189 249.53C317.299 272.64 328.799 346.56 328.799 346.56H341.239C341.239 346.56 338.369 271.94 336.679 249.11C334.839 224.22 335.319 168.27 335.319 168.27L309.619 170.8L309.609 170.79Z" fill="black"/>
<path d="M326.32 340.72C326.26 340.72 327.31 348.25 327.31 348.25L342.44 347.73L342.58 340.71H326.32V340.72Z" fill="#4D5060"/>
<path fill-rule="evenodd" clip-rule="evenodd" d="M190.41 291.715C191.344 290.984 192.657 290.984 193.591 291.715L197.878 295.065L203.265 294.307C204.44 294.141 205.577 294.798 206.021 295.898L208.058 300.943L213.103 302.98C214.203 303.424 214.859 304.56 214.694 305.735L213.935 311.123L217.286 315.409C218.016 316.344 218.016 317.656 217.286 318.591L213.935 322.877L214.694 328.265C214.859 329.44 214.203 330.576 213.103 331.021L208.058 333.058L206.021 338.102C205.577 339.202 204.44 339.859 203.265 339.693L197.878 338.935L193.591 342.285C192.657 343.016 191.344 343.016 190.41 342.285L186.123 338.935L180.735 339.693C179.561 339.859 178.424 339.202 177.98 338.102L175.943 333.058L170.898 331.021C169.798 330.576 169.142 329.44 169.307 328.265L170.065 322.877L166.715 318.591C165.984 317.656 165.984 316.344 166.715 315.409L170.065 311.123L169.307 305.735C169.142 304.56 169.798 303.424 170.898 302.98L175.943 300.943L177.98 295.898C178.424 294.798 179.561 294.141 180.735 294.307L186.123 295.065L190.41 291.715ZM201.577 313.66C202.586 312.651 202.586 311.016 201.577 310.007C200.568 308.998 198.932 308.998 197.924 310.007L189.417 318.513L186.077 315.173C185.068 314.165 183.433 314.165 182.424 315.173C181.415 316.182 181.415 317.818 182.424 318.827L187.59 323.993C188.599 325.002 190.235 325.002 191.244 323.993L201.577 313.66Z" fill="white"/>
</svg>
