<svg width="284" height="40" viewBox="0 0 284 40" fill="none" xmlns="http://www.w3.org/2000/svg">
<path d="M118.073 28.6888C116.411 30.2345 114.725 31.4546 113.024 32.3587C111.324 33.258 109.291 33.71 106.925 33.71C105.078 33.71 103.368 33.3503 101.794 32.6358C100.221 31.9164 98.8621 30.9345 97.7185 29.6853C96.5701 28.436 95.6856 26.9729 95.0551 25.3008C94.4247 23.6286 94.112 21.835 94.112 19.9198C94.112 18.0046 94.4247 16.2255 95.0551 14.568C95.6856 12.9153 96.5701 11.4716 97.7185 10.237C98.8621 9.00717 100.221 8.03014 101.794 7.31073C103.363 6.59132 105.073 6.23648 106.925 6.23648C109.144 6.23648 111.123 6.67882 112.858 7.55863C114.598 8.44331 116.24 9.60019 117.794 11.0341L122.178 6.01288C121.254 5.12821 120.272 4.3213 119.241 3.58731C118.205 2.85332 117.076 2.21655 115.859 1.68186C114.637 1.14716 113.298 0.73399 111.837 0.442338C110.376 0.150687 108.758 0 106.984 0C104.028 0 101.325 0.524973 98.8865 1.57006C96.4479 2.62 94.3368 4.05396 92.5628 5.87192C90.7889 7.68988 89.4108 9.81407 88.4285 12.2445C87.4511 14.6701 86.9575 17.2658 86.9575 20.0219C86.9575 22.778 87.456 25.4272 88.4529 27.8576C89.4498 30.2831 90.828 32.3928 92.5873 34.1718C94.3417 35.9558 96.4235 37.3606 98.8279 38.3911C101.232 39.4216 103.856 39.9368 106.706 39.9368C108.519 39.9368 110.17 39.7813 111.671 39.4702C113.166 39.1591 114.544 38.6973 115.805 38.0897C117.061 37.4821 118.234 36.7675 119.328 35.9363C120.418 35.11 121.464 34.1621 122.461 33.0976L118.077 28.6839L118.073 28.6888Z" fill="black"/>
<path d="M137.763 22.8412H157.232V16.7165H137.763V6.78576H159.724V0.661077H130.999V39.2806H160.003V33.1559H137.763V22.8412Z" fill="black"/>
<path d="M195.751 23.0891C196.879 22.4086 197.847 21.5822 198.663 20.6052C199.474 19.633 200.115 18.5101 200.579 17.2415C201.043 15.9728 201.273 14.5291 201.273 12.9104C201.273 11.0341 200.94 9.33285 200.276 7.80654C199.611 6.28023 198.658 4.9921 197.422 3.94702C196.181 2.89707 194.666 2.09017 192.872 1.52145C191.079 0.95273 189.075 0.665939 186.856 0.665939H169.552V39.2806H176.32V25.8209H184.887L194.456 39.2806H202.499L192.017 24.6591C193.385 24.2897 194.631 23.7696 195.76 23.0891H195.751ZM176.31 19.808V6.78576H186.27C188.831 6.78576 190.815 7.33018 192.222 8.41901C193.63 9.50784 194.338 11.1265 194.338 13.2653C194.338 15.2582 193.615 16.8477 192.168 18.0289C190.722 19.2101 188.777 19.8031 186.329 19.8031H176.315L176.31 19.808Z" fill="black"/>
<path d="M208.09 6.95103H220.4V39.2806H227.281V6.95103H239.591V0.661077H208.09V6.95103Z" fill="black"/>
<path d="M259.921 24.8536C259.051 24.2119 258.083 23.6675 257.008 23.2252C255.933 22.7828 254.863 22.3988 253.793 22.0683C252.942 21.8107 252.121 21.5433 251.325 21.2663C250.528 20.9892 249.829 20.6975 249.219 20.3816C248.608 20.0705 248.119 19.7205 247.748 19.3316C247.376 18.9476 247.19 18.4956 247.19 17.9803V17.8685C247.19 17.0227 247.552 16.3228 248.27 15.7735C248.989 15.2242 250 14.9471 251.291 14.9471C252.512 14.9471 253.842 15.195 255.283 15.6909C256.725 16.1867 258.147 16.8575 259.554 17.7033L262.218 12.9591C260.664 11.9286 258.944 11.1217 257.062 10.5335C255.176 9.94532 253.309 9.64881 251.462 9.64881C250.02 9.64881 248.661 9.85297 247.386 10.2564C246.11 10.6599 245.001 11.248 244.058 12.0209C243.115 12.7938 242.377 13.7319 241.839 14.8353C241.302 15.9388 241.033 17.1734 241.033 18.5296V18.6414C241.033 20.0413 241.312 21.2079 241.864 22.1461C242.416 23.0842 243.129 23.8765 243.999 24.5182C244.869 25.1598 245.847 25.6848 246.941 26.0882C248.031 26.4917 249.111 26.8611 250.186 27.1916C251.036 27.4493 251.857 27.6972 252.654 27.9354C253.451 28.1735 254.149 28.4506 254.76 28.7617C255.371 29.0728 255.85 29.4325 256.202 29.836C256.554 30.2394 256.73 30.7206 256.73 31.2699V31.3817C256.73 32.3393 256.334 33.1025 255.537 33.6712C254.741 34.2399 253.622 34.5267 252.18 34.5267C250.665 34.5267 249.082 34.2253 247.44 33.6177C245.793 33.0101 244.175 32.1206 242.587 30.9442L239.591 35.4697C241.439 36.9036 243.447 37.9876 245.607 38.7265C247.772 39.4605 249.908 39.8299 252.014 39.8299C253.529 39.8299 254.956 39.6354 256.285 39.2514C257.614 38.8674 258.772 38.2939 259.75 37.5404C260.727 36.787 261.499 35.8391 262.052 34.7017C262.604 33.5642 262.882 32.2178 262.882 30.6769V30.5651C262.882 29.2429 262.604 28.1201 262.052 27.2014C261.499 26.2827 260.786 25.5001 259.916 24.8584L259.921 24.8536Z" fill="black"/>
<path d="M38.8071 1.11314H30.9342L25.0259 14.918H14.8269L5.87408 6.01289C6.25037 5.50249 6.47517 4.87544 6.47517 4.19979C6.47517 2.51307 5.09217 1.13744 3.39641 1.13744C1.70065 1.13744 0.312763 2.50821 0.312763 4.19979C0.312763 5.89136 1.69576 7.26213 3.39152 7.26213C3.78248 7.26213 4.15877 7.18921 4.50574 7.05311L14.1183 16.6144H24.2978L22.9685 19.7205H6.19662C5.82521 18.4421 4.64258 17.504 3.24003 17.504C1.54427 17.504 0.161268 18.8796 0.161268 20.5663C0.161268 22.253 1.54427 23.6286 3.24003 23.6286C4.64258 23.6286 5.8301 22.6905 6.19662 21.4121H22.2453L20.916 24.5182H13.8056L4.19298 34.0795C3.84601 33.9434 3.4746 33.8705 3.07876 33.8705C1.383 33.8705 0 35.2461 0 36.9328C0 38.6195 1.383 39.9951 3.07876 39.9951C4.77452 39.9951 6.15752 38.6195 6.15752 36.9328C6.15752 36.2523 5.93272 35.6252 5.55643 35.1197L14.5093 26.2146H20.1879L14.2894 40H22.9979L26.5458 31.338H42.9609L46.5088 40H55.4373L38.8071 1.11314ZM29.6001 23.8425L34.7558 11.3209L39.9115 23.8425H29.5952H29.6001Z" fill="#CFA935"/>
<path d="M71.8866 1.21522H63.3442V39.8347H71.8866V1.21522Z" fill="#CFA935"/>
<path d="M262.951 2.72694H266.074V10.864H268.327V2.72694H271.454V0.656219H262.951V2.72694Z" fill="black"/>
<path d="M281.375 0.656219L278.682 4.97266L275.98 0.656219H273.551V10.864H275.765V4.24353L278.623 8.55997H278.682L281.565 4.19978V10.864H283.808V0.656219H281.375Z" fill="black"/>
</svg>
